inDegrees=no
num_controls=7
num_derivatives=13
num_iterations=95
num_multipliers=7
num_parameters=0
num_slacks=7
num_states=26
objective=0.445903
objective_accelerations=0.056989
objective_balance=0.003428
objective_effort=0.022598
objective_height=0.357351
objective_ligament=0.005537
solver_duration=1287.033116
status=Solve_Succeeded
success=true
DataType=double
version=3
OpenSimVersion=4.5
endheader
time	/jointset/ground_pelvis/pelvis_tilt/value	/jointset/ground_pelvis/pelvis_tx/value	/jointset/ground_pelvis/pelvis_ty/value	/jointset/hip_l/hip_flexion_l/value	/jointset/hip_l/hip_adduction_l/value	/jointset/hip_l/hip_rotation_l/value	/jointset/back/lumbar_extension/value	/jointset/patellofemoral_l/patellar_flexion_l/value	/jointset/knee_l/knee_flexion_l/value	/jointset/knee_l/knee_adduction_l/value	/jointset/knee_l/knee_rotation_l/value	/jointset/ankle_l/ankle_angle_l/value	/jointset/subtalar_l/subtalar_angle_l/value	/jointset/ground_pelvis/pelvis_tilt/speed	/jointset/ground_pelvis/pelvis_tx/speed	/jointset/ground_pelvis/pelvis_ty/speed	/jointset/hip_l/hip_flexion_l/speed	/jointset/hip_l/hip_adduction_l/speed	/jointset/hip_l/hip_rotation_l/speed	/jointset/back/lumbar_extension/speed	/jointset/patellofemoral_l/patellar_flexion_l/speed	/jointset/knee_l/knee_flexion_l/speed	/jointset/knee_l/knee_adduction_l/speed	/jointset/knee_l/knee_rotation_l/speed	/jointset/ankle_l/ankle_angle_l/speed	/jointset/subtalar_l/subtalar_angle_l/speed	/forceset/tau_hip_flexion_l	/forceset/tau_hip_adduction_l	/forceset/tau_hip_rotation_l	/forceset/tau_knee_flexion_l	/forceset/tau_ankle_angle_l	/forceset/tau_subtalar_angle_l	/forceset/tau_lumbar_extension	lambda_cid13_p0	lambda_cid13_p1	lambda_cid13_p2	lambda_cid13_p3	lambda_cid13_p4	lambda_cid13_p5	lambda_cid14_p0	/jointset/ground_pelvis/pelvis_tilt/accel	/jointset/ground_pelvis/pelvis_tx/accel	/jointset/ground_pelvis/pelvis_ty/accel	/jointset/hip_l/hip_flexion_l/accel	/jointset/hip_l/hip_adduction_l/accel	/jointset/hip_l/hip_rotation_l/accel	/jointset/back/lumbar_extension/accel	/jointset/patellofemoral_l/patellar_flexion_l/accel	/jointset/knee_l/knee_flexion_l/accel	/jointset/knee_l/knee_adduction_l/accel	/jointset/knee_l/knee_rotation_l/accel	/jointset/ankle_l/ankle_angle_l/accel	/jointset/subtalar_l/subtalar_angle_l/accel	gamma_cid13_p0	gamma_cid13_p1	gamma_cid13_p2	gamma_cid13_p3	gamma_cid13_p4	gamma_cid13_p5	gamma_cid14_p0
0.5	-0.3337735842238902	-0.03627304222394567	0.7614949691573824	1.088364966600323	-0.4367310713713164	-0.2231865698969074	-0.2540207379995805	0.8057826808972031	0.8057826808970876	-0.1280245552442625	-0.1584502611350611	0.1108555388395691	-0.03080831099581672	-0.7547822315980069	-0.2077060591892757	-0.5254354414587433	2.443443592198252	-0.2076021282131653	0.7428878385240227	-0.1191161598379545	1.986269464134158	1.986269464134303	0.1280465388992338	-0.08910008904819856	0.4686658682334334	0.002562049111872663	-0.1661591307467832	0.02007606579827979	-0.01136998465876686	-0.2214689115750411	0.06865085925685319	0.04299935350252603	0.1655158691135035	-10.76560831123911	-19.93849182689495	6.439570712706033	-7.12482312788064	-523.0877906288969	-62.68304703144959	-25.20362912014031	0.7716855550761683	0.6141661103655447	-0.4463662073872345	-1.377894459359987	0.7341216819580407	-0.215334278732037	1.095408206517388	-1.280028990244118	-1.28002899024412	0.08415093078275632	0.1768232955561181	-0.4729222380902237	0.5571959737854258	-5.43279818901427e-07	-4.361215839589442e-07	2.71399295254678e-06	1.411754000566574e-07	-6.194535370812999e-07	-1.468218408228501e-08	-4.421453438201442e-07
0.51	-0.3412810155867116	-0.03831914706625355	0.7562194701712776	1.112725718821668	-0.4387714909825634	-0.2157672836071118	-0.2551582547697103	0.8255782206592641	0.8255782206590193	-0.1267441286075605	-0.1593318872184625	0.1155173271829557	-0.03075671459698399	-0.7465959791274216	-0.2014973582241222	-0.5295495526546018	2.428367126572383	-0.200466168227459	0.7408740402279127	-0.1084250142199639	1.972567293293751	1.972567293293912	0.1280279473721189	-0.08721184315997386	0.4636159397311773	0.007744766651370481	-0.1715757073214002	0.02091558333985638	-0.01144712179098565	-0.2241952194349608	0.06803208263711369	0.04330408174913376	0.1696642639916993	-11.16418857400953	-19.98061472917777	6.422947082885728	-7.023053938656166	-526.6976768869716	-62.28497094076624	-24.29017216397844	0.8582384852904318	0.6268846999137646	-0.3768342485380541	-1.623558973430891	0.7053688672081062	-0.2090934089535821	1.050294734653597	-1.455902638399169	-1.455902638396787	-0.04644921048107369	0.1973653510644387	-0.5324030465327545	0.4966846203386726	-5.285971235053768e-07	-3.555156330259e-07	2.73105794880465e-06	1.568649746375259e-07	-5.933841818907754e-07	5.56627761512717e-08	-4.348841214427341e-07
0.52	-0.3487033557463795	-0.04030263237684518	0.7509062499386434	1.136925499114907	-0.4407401438518874	-0.2083710734610572	-0.2561899946846177	0.8452286204114287	0.8452286204110557	-0.125464204889333	-0.1601941228198612	0.1201263412632718	-0.03065371602749494	-0.7377639909672069	-0.1951821528460281	-0.5329796907645764	2.411249206577291	-0.1932487798285054	0.7382726097756785	-0.0979607887934249	1.957241462154936	1.957241462155113	0.1279459552041059	-0.08522199264739688	0.4581110156193425	0.01284248324313696	-0.1769922838960224	0.02175510088143411	-0.01152425892319514	-0.2269215272948811	0.06741330601737504	0.04360880999574316	0.1738126588698892	-11.5658398544567	-20.0227148745672	6.40690972244552	-6.956962002127883	-530.3848210192485	-61.94523670327119	-23.37800199134521	0.9008326930020915	0.6354669929536555	-0.3095715902104411	-1.786185333204721	0.7504073646074966	-0.3328607099568558	1.050024168227073	-1.604761049925769	-1.604761049925769	0.07147080260315124	0.1971442204265797	-0.5639213600059979	0.5401957842391566	-5.126610599993889e-07	-2.84124869570025e-07	2.737496307391471e-06	1.712087734792653e-07	-5.685113341071083e-07	1.256653244643274e-07	-4.271727078387342e-07
0.53	-0.3560343095464923	-0.0422225383067199	0.7455621549985042	1.160944273605318	-0.4426362155015274	-0.2010036520704744	-0.2571183044585436	0.8647178797335001	0.8647178797332922	-0.1241853771180716	-0.1610359249691062	0.1246780986417865	-0.03050013710657821	-0.7283237943748293	-0.1887911577562282	-0.5357224099490443	2.392181646749184	-0.1859565032877707	0.7351086314497663	-0.08775824400620989	1.940354043380796	1.940354043380895	0.1278139442539984	-0.08313366205842956	0.4521669173618701	0.01785465166321131	-0.1823159070617169	0.02240084711377769	-0.01153950104569724	-0.2295743202679452	0.06657816884123959	0.0438288376129838	0.1778296268782625	-12.03683202597323	-20.01113119370849	6.376878044568469	-6.733650257498861	-533.9972828486023	-61.57391260291057	-22.46863458437573	0.9809935659520881	0.6421328214702599	-0.2392000747960568	-2.015724871346395	0.7196663275446097	-0.3239865730819881	0.9968079318101296	-1.769101498481813	-1.769101498493615	-0.05633306602156542	0.2159443566507206	-0.620672569886294	0.4786494982067069	-4.954420433002602e-07	-1.901285513032446e-07	2.757679505354837e-06	1.942700681432101e-07	-5.472782352419189e-07	1.974336584471521e-07	-4.166068558094164e-07
0.54	-0.3632677852959625	-0.04407829087480122	0.7401941172680742	1.1847626357847	-0.4444591586800128	-0.1936710344989851	-0.2579463011250293	0.8840305910263651	0.8840305910263225	-0.1229080286607507	-0.1618565904367593	0.1291682113354727	-0.03029705207599771	-0.7182683808385912	-0.1823514804873438	-0.5377682488227569	2.37116674437177	-0.1786230855975098	0.7313118459569106	-0.07789816730533791	1.921931856313706	1.921931856313727	0.1276500924157364	-0.08099465632870512	0.4457820786536603	0.02274370517589106	-0.1876395302274199	0.02304659334612083	-0.01155474316818126	-0.2322271132410105	0.06574303166510467	0.04404886523022396	0.181846594886627	-12.5114732537144	-19.99936663628584	6.347342470387295	-6.542481063899769	-537.6941850459547	-61.26154047179695	-21.564658912011	1.023876081774183	0.6452034287705276	-0.1701955280593876	-2.175653843066097	0.7586355945127307	-0.4594221433455944	0.9815305509584655	-1.911714708515714	-1.91171470851569	0.06510262497227032	0.2072792485780072	-0.6520694501534637	0.5155728027602344	-4.768035890257413e-07	-7.112183196907956e-08	2.793069759649701e-06	2.269762518019356e-07	-5.3007209262696e-07	2.711556276390831e-07	-4.028829016925127e-07
0.55	-0.370397865935032	-0.04586944822501294	0.7348091222649198	1.208361450529502	-0.4462085107980773	-0.1863790935024837	-0.2586773913925438	0.9031515568270433	0.9031515568268823	-0.1216325852028963	-0.1626552928321563	0.1335924073140601	-0.03004557284127195	-0.7076538555651591	-0.1758752610607572	-0.5391113419312551	2.348281847767068	-0.1712445075349271	0.7269775769511199	-0.06838905282633483	1.902017871480392	1.902017871480405	0.1274292245418741	-0.07873956594842402	0.438995051425219	0.02753229505195834	-0.1927157679456159	0.02348925231489475	-0.0115188464790656	-0.2351479525259382	0.06529366707984052	0.04404396591376002	0.1856441555728131	-12.86512413686249	-19.90464662335482	6.2972074856693	-6.373924733545108	-541.3336620510532	-60.8151626195592	-20.67094029166419	1.094258320309264	0.6495894369331423	-0.09855885809858615	-2.392138270848467	0.7275267513468047	-0.4355836853478133	0.9252269020624567	-2.067676142544471	-2.067676142545671	-0.06700548554159057	0.2361256091892552	-0.7013021924170314	0.4571971827538604	-4.54742474836371e-07	1.288666690045711e-08	2.7769153364625e-06	2.468788430416383e-07	-5.074334929931254e-07	3.357142395249676e-07	-3.880996187482473e-07
0.5600000000000001	-0.3774189978073312	-0.0475956917334927	0.7294142577995096	1.231721970167921	-0.447884065567673	-0.1791335260772701	-0.25931546551413	0.9220660956250271	0.9220660956247481	-0.1203596152221755	-0.1634311439884636	0.1379468764537175	-0.02974686868724073	-0.6964786274844648	-0.1693687121409535	-0.5397421412738951	2.323507723095314	-0.1638636159037136	0.722037131699249	-0.0592949381196823	1.880646455774871	1.880646455774875	0.1271553969889679	-0.07642440851069866	0.431836710867675	0.03218868903698115	-0.1977920056638124	0.02393191128366994	-0.01148294978994777	-0.2380687918108659	0.06484430249457686	0.0440390665972978	0.189441716258998	-13.22136511574069	-19.80957124528954	6.247129745411748	-6.243113951156382	-545.0443400499649	-60.42220807584096	-19.79002915099508	1.136016643226669	0.6512693274139483	-0.02773677488770705	-2.553499456476669	0.7590983082389049	-0.5806573925616301	0.8985305964883558	-2.203200882957049	-2.203200882957047	0.05451068916351871	0.2192926600668596	-0.7263321159740012	0.4891336245513405	-4.285741687491791e-07	5.4897301212441e-08	2.698907300296824e-06	2.514171233785143e-07	-4.782759449366403e-07	3.892768226435967e-07	-3.720451412111479e-07
0.5700000000000001	-0.3843257170385757	-0.04925685699498682	0.7240166331390375	1.254825684564977	-0.4494857439542573	-0.1719403441487896	-0.2598647729425556	0.940759800847528	0.9407598008475115	-0.1190894914903371	-0.1641835318944508	0.1422278962114799	-0.02940221231883053	-0.6847733365742389	-0.1628723540056288	-0.5396639109928513	2.296937430162182	-0.1564745446328058	0.7165033847445662	-0.0506577839432863	1.85786210655288	1.857862106552896	0.1268572976936	-0.07404673195782521	0.4243006946076999	0.03671350239974126	-0.2028162107270014	0.02427822430544658	-0.01136317315597186	-0.2406918376917293	0.06381306518089061	0.04400303089727248	0.1931211467408674	-13.75843399796966	-19.6632541600072	6.181961787371543	-5.838532350665284	-548.5917962021705	-60.02677989748127	-18.92374641127634	1.201507230900935	0.6476677762715005	0.04334254719504577	-2.753523630599719	0.7280831679190894	-0.5544185290569446	0.8326223715391478	-2.350851674921538	-2.350851674919833	-0.073699387456298	0.2485057720634821	-0.7771866708805936	0.4294693859443864	-3.984899237696153e-07	1.196540373257815e-07	2.628528135129052e-06	2.607297154029748e-07	-4.469914772713577e-07	4.41629135608593e-07	-3.522334384544666e-07
0.58	-0.391112638977522	-0.05085328893119175	0.7186233387048947	1.277654750148929	-0.4510136773018518	-0.1648054367262822	-0.260330445920552	0.9592187026311887	0.9592187026314345	-0.1178226945811663	-0.1649118429110762	0.1464315657486683	-0.02901324497803152	-0.6725191690247976	-0.1564220470831131	-0.5388760960080223	2.268577960474321	-0.149114608105804	0.7103822305044698	-0.04256804803393317	1.833685768006832	1.833685768006859	0.1264900324554582	-0.07160903063831568	0.4163666667528718	0.04105088351474305	-0.2078404157901824	0.02462453732722627	-0.0112433965220016	-0.2433148835725921	0.06278182786720451	0.04396699519725103	0.1968005772227436	-14.29776696831043	-19.51624420451425	6.116346444105309	-5.469865325977864	-552.2042915388863	-59.68151632973106	-18.0735587060859	1.245791971069766	0.6420590848521668	0.1141801658692817	-2.911334807422497	0.7532713594577191	-0.6981388496443846	0.7890469430797886	-2.481598747768649	-2.481598747768657	0.0406775006087489	0.2312976133940728	-0.8059344349445925	0.4516471749996817	-3.633058513953351e-07	2.140336036920495e-07	2.568084243819017e-06	2.762600156717312e-07	-4.129370677899675e-07	4.924052827921136e-07	-3.275286051792604e-07
